STARTFONT 2.1
FONT -artwiz-cure-medium-r-normal--11-110-75-75-p-90-ISO8859-1
SIZE 11 75 75
FONTBOUNDINGBOX 9 11 0 -2
STARTPROPERTIES 3
DEFAULT_CHAR 63
FONT_ASCENT 9
FONT_DESCENT 2
ENDPROPERTIES
CHARS 6
STARTCHAR 182
ENCODING 182
SWIDTH 872 0
DWIDTH 10 0
BBX 7 7 2 0
BITMAP
F8
88
8E
8A
FA
22
3E
ENDCHAR
STARTCHAR 188
ENCODING 188
SWIDTH 872 0
DWIDTH 10 0
BBX 7 7 2 0
BITMAP
38
6C
CE
C6
E2
64
38
ENDCHAR
STARTCHAR 189
ENCODING 189
SWIDTH 872 0
DWIDTH 10 0
BBX 7 7 2 0
BITMAP
FE
FE
BE
DE
B2
FE
FE
ENDCHAR
STARTCHAR 190
ENCODING 190
SWIDTH 872 0
DWIDTH 10 0
BBX 6 7 3 1
BITMAP
00
00
F8
00
3C
00
70
ENDCHAR
STARTCHAR 187
ENCODING 187
SWIDTH 872 0
DWIDTH 10 0
BBX 5 7 3 0
BITMAP
20
30
28
20
60
E0
40
ENDCHAR
STARTCHAR 162
ENCODING 162
SWIDTH 785 0
DWIDTH 9 0
BBX 7 7 1 0
BITMAP
38
6C
74
7C
7C
FE
10
ENDCHAR
ENDFONT
